<svg xmlns="http://www.w3.org/2000/svg" id="Layer_2" data-name="Layer 2" viewBox="0 0 232.49 68.19"><defs><style>      .cls-1 {        font-family: FbKtifa-Bold, 'Fb Ktifa';        font-size: 52.1px;        font-weight: 700;      }      .cls-1, .cls-2 {        fill: #034bad;      }      .cls-3 {        fill: #24c9cb;      }      .cls-4 {        fill: none;        stroke: #034bad;        stroke-miterlimit: 10;      }      .cls-5 {        fill: #3f3f3f;        font-family: FbKtifa-Regular, 'Fb Ktifa';        font-size: 19.51px;      }    </style></defs><g id="Layer_1-2" data-name="Layer 1"><g><g><path class="cls-2" d="M191.46,4.2c1.73.66,3.38,1.54,4.9,2.6,1.18.82,2.28,1.75,3.28,2.77s1.47,2.21,2.9,1.13c5.63-4.23,13.55-5.27,19.95-2.2,2.31,1.11,4.36,2.73,5.94,4.75,4.04,5.15,4.64,12.15,3.61,18.41-1.81,11.02-8.42,21-17.32,27.75-.08.06-.17.12-.27.14-.24.03-.42-.25-.38-.49s.2-.43.36-.6c5.77-6.36,9.5-14.45,11.16-22.87.67-3.42,1.01-6.95.4-10.38s-2.28-6.76-5.04-8.89c-2.27-1.75-5.17-2.6-8.03-2.53-2.4.06-4.76.74-6.88,1.85-2,1.05-3.53,2.69-5.36,3.99-.08.06-.17.11-.26.11-.14,0-.25-.11-.34-.22-4.02-4.64-8.28-9.13-14.81-9.62-4.38-.33-8.97,1.47-11.59,5-1.84,2.49-2.58,5.57-2.63,8.63-.03,1.5.07,3.04.31,4.53.27,1.69.95,3.28,1.16,4.97.05.36.03.8-.29.98-.04.02-.09.04-.14.03-.04-.01-.08-.05-.1-.09-3.28-4.44-6.45-9.49-6.7-15.18-.18-4.09,1.37-8.28,4.34-11.13,4.87-4.67,12.7-5.84,19.08-4.3.94.23,1.87.52,2.77.87Z"></path><path class="cls-3" d="M164.68,29.92c.1.08.53,1.22.68,1.47,4.71,7.81,11.79,13.85,19.73,18.2.8.44,1.62.86,2.44,1.27,1.23.61,2.63,1.9,4.09,1.28,2.08-.88,1.46-3.88.23-5.21-1.45-1.56-3.72-2.56-4.85-4.4-.8-1.31-1.4-3.69-.16-4.89.52-.51,2.76,1.12,3.42,1.4,1.33.58,2.69,1.07,3.99,1.73,2.1,1.07,3.97,2.58,5.48,4.38,2.77,3.31,3.44,7.33,4.48,11.39.42,1.66,1.01,3.37,1.88,4.89.46.8.99,1.55,1.62,2.22.36.39,1.61,1.3.63,1.74-.61.27-1.93-.05-2.58-.14-.9-.11-1.79-.29-2.68-.47-4.76-.98-9.33-2.33-13.82-4.13-2-.8-3.97-1.69-5.88-2.69-3.78-1.98-7.34-4.43-10.35-7.47-2.21-2.24-4.11-4.78-5.61-7.55-1.83-3.37-3.72-8.58-3.26-12.35.03-.25.19-.95.54-.67Z"></path></g><g><text class="cls-1" transform="translate(.27 40.79)"><tspan x="0" y="0">לב שליו</tspan></text><text class="cls-5" transform="translate(0 61.58)"><tspan x="0" y="0">שירותי סיעוד ואחיות</tspan></text></g><line class="cls-4" x1="157.34" y1="1.21" x2="157.34" y2="66.98"></line></g></g></svg>